<?xml version="1.0" encoding="utf-8"?>
<!-- Generator: Adobe Illustrator 26.3.1, SVG Export Plug-In . SVG Version: 6.00 Build 0)  -->
<svg version="1.1" id="Layer_1" xmlns="http://www.w3.org/2000/svg" xmlns:xlink="http://www.w3.org/1999/xlink" x="0px" y="0px"
	 viewBox="0 0 1372.8 275.9" style="enable-background:new 0 0 1372.8 275.9;" xml:space="preserve">
<style type="text/css">
	.st0{fill:#6630FF;}
	.st1{fill:#FFFFFF;}
</style>
<g>
	<g>
		<g>
			<path d="M366.6-321.3h-22.5c-3.4,0-6.1-2.7-6.1-6.1v-171.5c0-3.4,2.7-6.1,6.1-6.1h20.7c3.4,0,6.1,2.7,6.1,6.1v7.1
				c7-7,20.4-15.5,42.4-15.5c42.2,0,69.3,29.7,69.3,71.1c0,40.3-26.9,71.9-70.9,71.9c-18.4,0-32.1-7.5-39.1-13.4v50.3
				C372.7-324.1,369.9-321.3,366.6-321.3z M410.6-395.1c19.1-0.3,34.8-15.2,36.9-34.2c3-26.7-12.8-47.3-37.9-47.3
				c-23.8,0-38,17.3-38,40.9C371.6-411.6,387.2-394.7,410.6-395.1z"/>
			<path d="M539.2-457.4c12.4,0,20.7,3.4,24.6,5.7v-7c0-12.2-4.9-20.4-18.1-20.4c-10.5,0-15,5.4-16.3,11.5c-0.6,2.7-3.1,4.6-5.9,4.6
				h-20.3c-3.7,0-6.6-3.3-6-6.9c3.2-22.2,18.7-36.5,48.6-36.5c39.8,0,52.2,21.7,52.2,52.8v81.1c0,3.4-2.7,6.1-6.1,6.1h-16.8
				c-3.4,0-6.1-2.7-6.1-6.1v-2.7c-3.9,4.1-12.9,10.6-29.2,10.6c-27.7,0-48.1-18.4-48.1-47.1C491.6-437.7,510.3-457.4,539.2-457.4z
				 M544.4-392.2c12,0,20.9-9.3,19.8-22c-0.8-9-9.2-16.9-18.2-17.5c-13.2-0.9-21.8,7.9-21.8,19.6
				C524.2-400.5,532.2-392.2,544.4-392.2z"/>
			<path d="M637.9-329.5l15.6-42.5l-49.5-124.6c-1.6-4,1.4-8.3,5.7-8.3h23c3.8,0,7.2,2.4,8.6,5.9l30.1,80l29.1-79.9
				c1.3-3.6,4.7-6,8.6-6h20.5c4.3,0,7.2,4.3,5.7,8.3l-64.5,169.5c-1.3,3.5-4.7,5.9-8.5,5.9h-18.6
				C639.4-321.3,636.5-325.6,637.9-329.5z"/>
		</g>
		<g>
			<path d="M810-410.1l29.2-88.6c1.2-3.7,4.7-6.3,8.7-6.3h16.4c6.3,0,10.7,6.2,8.6,12.2l-43.1,122.1c-0.9,2.4-3.2,4.1-5.7,4.1h-29.4
				c-2.6,0-4.9-1.6-5.7-4l-45.5-126.2c-1.4-4,1.5-8.2,5.7-8.2h23c3.9,0,7.4,2.5,8.7,6.3L810-410.1z"/>
			<path d="M923.6-457.4c12.4,0,20.7,3.4,24.6,5.7v-7c0-12.2-4.9-20.4-18.1-20.4c-10.5,0-15,5.4-16.3,11.5c-0.6,2.7-3.1,4.6-5.9,4.6
				l-20.3,0c-3.7,0-6.6-3.3-6-6.9c3.2-22.2,18.7-36.5,48.6-36.5c39.8,0,52.2,21.7,52.2,52.8v81.1c0,3.4-2.7,6.1-6.1,6.1h-16.8
				c-3.4,0-6.1-2.7-6.1-6.1v-2.7c-3.9,4.1-12.9,10.6-29.2,10.6c-27.7,0-48.1-18.4-48.1-47.1C876-437.7,894.6-457.4,923.6-457.4z
				 M928.7-392.2c12,0,20.9-9.3,19.8-22c-0.8-9-9.2-16.9-18.2-17.5c-13.2-0.9-21.8,7.9-21.8,19.6
				C908.6-400.5,916.6-392.2,928.7-392.2z M963.7-541.1l-13.8,23.5c-1.1,1.9-3.1,3-5.3,3h-18.8c-4.6,0-7.6-5-5.3-9l12.9-23.5
				c1.1-1.9,3.1-3.2,5.3-3.2h19.6C963.2-550.2,966.1-545.1,963.7-541.1z"/>
			<path d="M1030.5-366.6H1008c-3.4,0-6.1-2.7-6.1-6.1v-176.9c0-3.4,2.7-6.1,6.1-6.1h22.5c3.4,0,6.1,2.7,6.1,6.1v176.9
				C1036.6-369.3,1033.9-366.6,1030.5-366.6z"/>
			<path d="M1053.7-531c-2.1-13.9,9.3-25.6,22.9-24.1c9.6,1.1,17.1,8.9,18.2,18.5c1.4,13.5-9.9,24.5-23.9,22.5
				C1062-515.3,1054.9-522.2,1053.7-531z M1085.3-366.6h-22.5c-3.4,0-6.1-2.7-6.1-6.1v-126.2c0-3.4,2.7-6.1,6.1-6.1h22.5
				c3.4,0,6.1,2.7,6.1,6.1v126.2C1091.4-369.3,1088.7-366.6,1085.3-366.6z"/>
			<path d="M1218.7-380.3c-8.3,9.1-23.3,16-40.9,16c-42.7,0-71.4-29.7-71.4-71.1c0-40.3,28.5-71.9,70.1-71.9
				c17.6,0,31.3,5.4,39.8,13.4v-55.7c0-3.4,2.7-6.1,6.1-6.1h22.5c3.4,0,6.1,2.7,6.1,6.1v176.9c0,3.4-2.7,6.1-6.1,6.1h-20.1
				c-3.4,0-6.1-2.7-6.1-6.1V-380.3z M1179.4-395.3c23.3,0,38-17.6,38-40.6s-15.3-40.6-38-40.6c-23.3,0-38.3,17.6-38.3,40.6
				C1141.1-412.6,1156.9-395.3,1179.4-395.3z"/>
			<path d="M1314.1-457.4c12.4,0,20.7,3.4,24.6,5.7v-7c0-12.2-4.9-20.4-18.1-20.4c-10.5,0-15,5.4-16.3,11.5
				c-0.6,2.7-3.1,4.6-5.9,4.6h-20.3c-3.7,0-6.6-3.3-6-6.9c3.2-22.2,18.7-36.5,48.6-36.5c39.8,0,52.2,21.7,52.2,52.8v81.1
				c0,3.4-2.7,6.1-6.1,6.1H1350c-3.4,0-6.1-2.7-6.1-6.1v-2.7c-3.9,4.1-12.9,10.6-29.2,10.6c-27.7,0-48.1-18.4-48.1-47.1
				C1266.5-437.7,1285.2-457.4,1314.1-457.4z M1319.3-392.2c12,0,20.9-9.3,19.8-22c-0.8-9-9.2-16.9-18.2-17.5
				c-13.2-0.9-21.8,7.9-21.8,19.6C1299.1-400.5,1307.1-392.2,1319.3-392.2z"/>
		</g>
		<g>
			<path d="M201-506c0.1,0.1,0.2,0.1,0.2,0.2c0.1,0.1,0.1,0.2,0.2,0.2c9.2,9.2,24.2,9.3,33.4,0.1l3.4-3.4c0,0,0,0,0,0
				c9.2-9.2,9.2-24.2,0-33.4c-0.1-0.1-0.2-0.2-0.3-0.3c-0.1-0.1-0.2-0.2-0.3-0.3c-9.2-9.2-24.2-9.2-33.4,0c0,0,0,0,0,0l-3.4,3.4
				C191.7-530.2,191.7-515.3,201-506z"/>
			<path d="M140.2-553.2c-1.9,12.9,6.9,24.9,19.8,26.9c7.7,1.2,15.1-1.5,20.3-6.7c3.4-3.4,5.8-7.7,6.6-12.9l1.3-8.1
				c1.9-12.9-7-24.3-20-26.2c-12.9-1.9-24.9,6.9-26.9,19.8L140.2-553.2z"/>
			<path d="M78.4-541.6l6.8,12.7c6.1,11.5,20.4,15.9,32,9.8c2.1-1.1,4-2.5,5.6-4.2c7.2-7.2,9.1-18.4,4.1-27.8l-6.8-12.7
				c-6.1-11.5-20.4-15.9-32-9.8C76.6-567.5,72.3-553.2,78.4-541.6z"/>
			<path d="M22.2-519.8c-5.7,11.7-0.8,25.9,10.9,31.6l21.1,10.4c9.3,4.5,20.1,2.4,27-4.5c1.8-1.8,3.4-4,4.5-6.4
				c5.7-11.7,0.8-25.9-10.9-31.6l-21.1-10.4C42.1-536.4,27.9-531.5,22.2-519.8z"/>
			<path d="M221.7-464.6c1.9,12.9,14,21.8,26.9,19.8l7.1-1.1c12.9-1.9,21.8-14,19.8-26.9c-1.9-12.9-14-21.8-26.9-19.8l-8.1,1.3
				c-5.2,0.8-8.7,3.1-12.2,6.5C223.3-479.8,220.6-472.4,221.7-464.6z"/>
			<path d="M218.9-427.3c-1.6,1.6-3,3.5-4.2,5.6c-6.1,11.5-1.8,25.8,9.8,32l12.3,6.7c11.5,6.1,25.8,1.8,32-9.8
				c6.1-11.5,1.8-25.8-9.8-32l-12.3-6.7C237.3-436.4,226-434.4,218.9-427.3z"/>
			<path d="M215.7-379.6c-5.7-11.7-19.8-16.6-31.6-10.9c-2.4,1.2-4.6,2.7-6.4,4.5c-6.9,6.9-9.1,17.7-4.5,27l10.3,21.1
				c5.7,11.7,19.8,16.6,31.6,10.9c11.7-5.7,16.6-19.8,10.9-31.6L215.7-379.6z"/>
			<g>
				<path d="M167.7-463.1c2.5,4.3,3.5,9.5,2.7,14.3l-19.9,125.9c-1.9,11.9-13.1,20-25,18.1c-4.7-0.8-8.8-3-11.9-6.1
					c-4.8-4.8-7.3-11.7-6.1-18.9l9-56.8c0.2-1.1-1.2-1.8-2-1l-42.9,42.9c-4.1,4.1-9.6,6.4-15.4,6.4c-5.8,0-11.3-2.3-15.3-6.3h0
					c-2.4-2.3-4.4-5.2-5.4-8.4c-2.7-8.3-0.6-16.8,5.2-22.6l42.9-42.9c0.8-0.8,0.1-2.2-1-2l-57.2,8.4c-11.9,1.9-23.1-6.2-25-18.1
					c-1.9-11.9,6.2-23.1,18.1-24.9l127.1-18.6c8.9-1.4,17.6,2.7,22.2,10.5"/>
			</g>
		</g>
	</g>
</g>
<g>
	<g>
		<g>
			<path class="st0" d="M366.6,259.1h-22.5c-3.4,0-6.1-2.7-6.1-6.1V81.6c0-3.4,2.7-6.1,6.1-6.1h20.7c3.4,0,6.1,2.7,6.1,6.1v7.1
				c7-7,20.4-15.5,42.4-15.5c42.2,0,69.3,29.7,69.3,71.1c0,40.3-26.9,71.9-70.9,71.9c-18.4,0-32.1-7.5-39.1-13.4v50.3
				C372.7,256.4,369.9,259.1,366.6,259.1z M410.6,185.4c19.1-0.3,34.8-15.2,36.9-34.2c3-26.7-12.8-47.3-37.9-47.3
				c-23.8,0-38,17.3-38,40.9C371.6,168.9,387.2,185.8,410.6,185.4z"/>
			<path class="st0" d="M539.2,123.1c12.4,0,20.7,3.4,24.6,5.7v-7c0-12.2-4.9-20.4-18.1-20.4c-10.5,0-15,5.4-16.3,11.5
				c-0.6,2.7-3.1,4.6-5.9,4.6h-20.3c-3.7,0-6.6-3.3-6-6.9c3.2-22.2,18.7-36.5,48.6-36.5c39.8,0,52.2,21.7,52.2,52.8v81.1
				c0,3.4-2.7,6.1-6.1,6.1h-16.8c-3.4,0-6.1-2.7-6.1-6.1v-2.7c-3.9,4.1-12.9,10.6-29.2,10.6c-27.7,0-48.1-18.4-48.1-47.1
				C491.6,142.8,510.3,123.1,539.2,123.1z M544.4,188.3c12,0,20.9-9.3,19.8-22c-0.8-9-9.2-16.9-18.2-17.5
				c-13.2-0.9-21.8,7.9-21.8,19.6C524.2,180,532.2,188.3,544.4,188.3z"/>
			<path class="st0" d="M637.9,251l15.6-42.5L604.1,83.9c-1.6-4,1.4-8.3,5.7-8.3h23c3.8,0,7.2,2.4,8.6,5.9l30.1,80l29.1-79.9
				c1.3-3.6,4.7-6,8.6-6h20.5c4.3,0,7.2,4.3,5.7,8.3l-64.5,169.5c-1.3,3.5-4.7,5.9-8.5,5.9h-18.6C639.4,259.1,636.5,254.9,637.9,251
				z"/>
		</g>
		<g>
			<path class="st0" d="M810,170.4l29.2-88.6c1.2-3.7,4.7-6.3,8.7-6.3h16.4c6.3,0,10.7,6.2,8.6,12.2l-43.1,122.1
				c-0.9,2.4-3.2,4.1-5.7,4.1h-29.4c-2.6,0-4.9-1.6-5.7-4L743.4,83.7c-1.4-4,1.5-8.2,5.7-8.2h23c3.9,0,7.4,2.5,8.7,6.3L810,170.4z"
				/>
			<path class="st0" d="M923.6,123.1c12.4,0,20.7,3.4,24.6,5.7v-7c0-12.2-4.9-20.4-18.1-20.4c-10.5,0-15,5.4-16.3,11.5
				c-0.6,2.7-3.1,4.6-5.9,4.6l-20.3,0c-3.7,0-6.6-3.3-6-6.9C884.7,88.3,900.2,74,930,74c39.8,0,52.2,21.7,52.2,52.8v81.1
				c0,3.4-2.7,6.1-6.1,6.1h-16.8c-3.4,0-6.1-2.7-6.1-6.1v-2.7c-3.9,4.1-12.9,10.6-29.2,10.6c-27.7,0-48.1-18.4-48.1-47.1
				C876,142.8,894.6,123.1,923.6,123.1z M928.7,188.3c12,0,20.9-9.3,19.8-22c-0.8-9-9.2-16.9-18.2-17.5
				c-13.2-0.9-21.8,7.9-21.8,19.6C908.6,180,916.6,188.3,928.7,188.3z M963.7,39.4l-13.8,23.5c-1.1,1.9-3.1,3-5.3,3h-18.8
				c-4.6,0-7.6-5-5.3-9l12.9-23.5c1.1-1.9,3.1-3.2,5.3-3.2h19.6C963.2,30.2,966.1,35.4,963.7,39.4z"/>
			<path class="st0" d="M1030.5,213.9H1008c-3.4,0-6.1-2.7-6.1-6.1V30.9c0-3.4,2.7-6.1,6.1-6.1h22.5c3.4,0,6.1,2.7,6.1,6.1v176.9
				C1036.6,211.2,1033.9,213.9,1030.5,213.9z"/>
			<path class="st0" d="M1053.7,49.5c-2.1-13.9,9.3-25.6,22.9-24.1c9.6,1.1,17.1,8.9,18.2,18.5c1.4,13.5-9.9,24.5-23.9,22.5
				C1062,65.2,1054.9,58.3,1053.7,49.5z M1085.3,213.9h-22.5c-3.4,0-6.1-2.7-6.1-6.1V81.6c0-3.4,2.7-6.1,6.1-6.1h22.5
				c3.4,0,6.1,2.7,6.1,6.1v126.2C1091.4,211.2,1088.7,213.9,1085.3,213.9z"/>
			<path class="st0" d="M1218.7,200.2c-8.3,9.1-23.3,16-40.9,16c-42.7,0-71.4-29.7-71.4-71.1c0-40.3,28.5-71.9,70.1-71.9
				c17.6,0,31.3,5.4,39.8,13.4V30.9c0-3.4,2.7-6.1,6.1-6.1h22.5c3.4,0,6.1,2.7,6.1,6.1v176.9c0,3.4-2.7,6.1-6.1,6.1h-20.1
				c-3.4,0-6.1-2.7-6.1-6.1V200.2z M1179.4,185.2c23.3,0,38-17.6,38-40.6s-15.3-40.6-38-40.6c-23.3,0-38.3,17.6-38.3,40.6
				C1141.1,167.8,1156.9,185.2,1179.4,185.2z"/>
			<path class="st0" d="M1314.1,123.1c12.4,0,20.7,3.4,24.6,5.7v-7c0-12.2-4.9-20.4-18.1-20.4c-10.5,0-15,5.4-16.3,11.5
				c-0.6,2.7-3.1,4.6-5.9,4.6h-20.3c-3.7,0-6.6-3.3-6-6.9c3.2-22.2,18.7-36.5,48.6-36.5c39.8,0,52.2,21.7,52.2,52.8v81.1
				c0,3.4-2.7,6.1-6.1,6.1H1350c-3.4,0-6.1-2.7-6.1-6.1v-2.7c-3.9,4.1-12.9,10.6-29.2,10.6c-27.7,0-48.1-18.4-48.1-47.1
				C1266.5,142.8,1285.2,123.1,1314.1,123.1z M1319.3,188.3c12,0,20.9-9.3,19.8-22c-0.8-9-9.2-16.9-18.2-17.5
				c-13.2-0.9-21.8,7.9-21.8,19.6C1299.1,180,1307.1,188.3,1319.3,188.3z"/>
		</g>
		<g>
			<path class="st0" d="M201,74.4c0.1,0.1,0.2,0.1,0.2,0.2c0.1,0.1,0.1,0.2,0.2,0.2c9.2,9.2,24.2,9.3,33.4,0.1l3.4-3.4c0,0,0,0,0,0
				c9.2-9.2,9.2-24.2,0-33.4c-0.1-0.1-0.2-0.2-0.3-0.3c-0.1-0.1-0.2-0.2-0.3-0.3c-9.2-9.2-24.2-9.2-33.4,0c0,0,0,0,0,0l-3.4,3.4
				C191.7,50.3,191.7,65.2,201,74.4z"/>
			<path class="st0" d="M140.2,27.3c-1.9,12.9,6.9,24.9,19.8,26.9c7.7,1.2,15.1-1.5,20.3-6.7c3.4-3.4,5.8-7.7,6.6-12.9l1.3-8.1
				c1.9-12.9-7-24.3-20-26.2c-12.9-1.9-24.9,6.9-26.9,19.8L140.2,27.3z"/>
			<path class="st0" d="M78.4,38.9l6.8,12.7c6.1,11.5,20.4,15.9,32,9.8c2.1-1.1,4-2.5,5.6-4.2c7.2-7.2,9.1-18.4,4.1-27.8l-6.8-12.7
				C114,5.1,99.7,0.8,88.1,6.9C76.6,13,72.3,27.3,78.4,38.9z"/>
			<path class="st0" d="M22.2,60.7c-5.7,11.7-0.8,25.9,10.9,31.6l21.1,10.4c9.3,4.5,20.1,2.4,27-4.5c1.8-1.8,3.4-4,4.5-6.4
				C91.6,80,86.7,65.9,75,60.2L53.8,49.8C42.1,44.1,27.9,49,22.2,60.7z"/>
			<path class="st0" d="M221.7,115.9c1.9,12.9,14,21.8,26.9,19.8l7.1-1.1c12.9-1.9,21.8-14,19.8-26.9c-1.9-12.9-14-21.8-26.9-19.8
				l-8.1,1.3c-5.2,0.8-8.7,3.1-12.2,6.5C223.3,100.7,220.6,108.1,221.7,115.9z"/>
			<path class="st0" d="M218.9,153.2c-1.6,1.6-3,3.5-4.2,5.6c-6.1,11.5-1.8,25.8,9.8,32l12.3,6.7c11.5,6.1,25.8,1.8,32-9.8
				c6.1-11.5,1.8-25.8-9.8-32l-12.3-6.7C237.3,144.1,226,146,218.9,153.2z"/>
			<path class="st0" d="M215.7,200.9c-5.7-11.7-19.8-16.6-31.6-10.9c-2.4,1.2-4.6,2.7-6.4,4.5c-6.9,6.9-9.1,17.7-4.5,27l10.3,21.1
				c5.7,11.7,19.8,16.6,31.6,10.9c11.7-5.7,16.6-19.8,10.9-31.6L215.7,200.9z"/>
			<g>
				<path class="st0" d="M167.7,117.4c2.5,4.3,3.5,9.5,2.7,14.3l-19.9,125.9c-1.9,11.9-13.1,20-25,18.1c-4.7-0.8-8.8-3-11.9-6.1
					c-4.8-4.8-7.3-11.7-6.1-18.9l9-56.8c0.2-1.1-1.2-1.8-2-1l-42.9,42.9c-4.1,4.1-9.6,6.4-15.4,6.4c-5.8,0-11.3-2.3-15.3-6.3h0
					c-2.4-2.3-4.4-5.2-5.4-8.4c-2.7-8.3-0.6-16.8,5.2-22.6L83.4,162c0.8-0.8,0.1-2.2-1-2l-57.2,8.4c-11.9,1.9-23.1-6.2-25-18.1
					c-1.9-11.9,6.2-23.1,18.1-24.9l127.1-18.6c8.9-1.4,17.6,2.7,22.2,10.5"/>
			</g>
		</g>
	</g>
</g>
<g>
	<g>
		<g>
			<path class="st1" d="M364.1-31.1h-22.5c-3.4,0-6.1-2.7-6.1-6.1v-171.5c0-3.4,2.7-6.1,6.1-6.1h20.7c3.4,0,6.1,2.7,6.1,6.1v7.1
				c7-7,20.4-15.5,42.4-15.5c42.2,0,69.3,29.7,69.3,71.1c0,40.3-26.9,71.9-70.9,71.9c-18.4,0-32.1-7.5-39.1-13.4v50.3
				C370.2-33.8,367.5-31.1,364.1-31.1z M408.2-104.8c19.1-0.3,34.8-15.2,36.9-34.2c3-26.7-12.8-47.3-37.9-47.3
				c-23.8,0-38,17.3-38,40.9C369.2-121.4,384.8-104.5,408.2-104.8z"/>
			<path class="st1" d="M536.8-167.1c12.4,0,20.7,3.4,24.6,5.7v-7c0-12.2-4.9-20.4-18.1-20.4c-10.5,0-15,5.4-16.3,11.5
				c-0.6,2.7-3.1,4.6-5.9,4.6h-20.3c-3.7,0-6.6-3.3-6-6.9c3.2-22.2,18.7-36.5,48.6-36.5c39.8,0,52.2,21.7,52.2,52.8v81.1
				c0,3.4-2.7,6.1-6.1,6.1h-16.8c-3.4,0-6.1-2.7-6.1-6.1v-2.7c-3.9,4.1-12.9,10.6-29.2,10.6c-27.7,0-48.1-18.4-48.1-47.1
				C489.2-147.5,507.8-167.1,536.8-167.1z M542-102c12,0,20.9-9.3,19.8-22c-0.8-9-9.2-16.9-18.2-17.5c-13.2-0.9-21.8,7.9-21.8,19.6
				C521.8-110.2,529.8-102,542-102z"/>
			<path class="st1" d="M635.5-39.3l15.6-42.5l-49.5-124.6c-1.6-4,1.4-8.3,5.7-8.3h23c3.8,0,7.2,2.4,8.6,5.9l30.1,80l29.1-79.9
				c1.3-3.6,4.7-6,8.6-6h20.5c4.3,0,7.2,4.3,5.7,8.3L668.3-37c-1.3,3.5-4.7,5.9-8.5,5.9h-18.6C637-31.1,634-35.3,635.5-39.3z"/>
		</g>
		<g>
			<path class="st1" d="M807.6-119.8l29.2-88.6c1.2-3.7,4.7-6.3,8.7-6.3h16.4c6.3,0,10.7,6.2,8.6,12.2L827.4-80.4
				c-0.9,2.4-3.2,4.1-5.7,4.1h-29.4c-2.6,0-4.9-1.6-5.7-4L741-206.6c-1.4-4,1.5-8.2,5.7-8.2h23c3.9,0,7.4,2.5,8.7,6.3L807.6-119.8z"
				/>
			<path class="st1" d="M921.1-167.1c12.4,0,20.7,3.4,24.6,5.7v-7c0-12.2-4.9-20.4-18.1-20.4c-10.5,0-15,5.4-16.3,11.5
				c-0.6,2.7-3.1,4.6-5.9,4.6l-20.3,0c-3.7,0-6.6-3.3-6-6.9c3.2-22.2,18.7-36.5,48.6-36.5c39.8,0,52.2,21.7,52.2,52.8v81.1
				c0,3.4-2.7,6.1-6.1,6.1H957c-3.4,0-6.1-2.7-6.1-6.1v-2.7c-3.9,4.1-12.9,10.6-29.2,10.6c-27.7,0-48.1-18.4-48.1-47.1
				C873.5-147.5,892.2-167.1,921.1-167.1z M926.3-102c12,0,20.9-9.3,19.8-22c-0.8-9-9.2-16.9-18.2-17.5
				c-13.2-0.9-21.8,7.9-21.8,19.6C906.1-110.2,914.2-102,926.3-102z M961.3-250.8l-13.8,23.5c-1.1,1.9-3.1,3-5.3,3h-18.8
				c-4.6,0-7.6-5-5.3-9l12.9-23.5c1.1-1.9,3.1-3.2,5.3-3.2H956C960.7-260,963.7-254.9,961.3-250.8z"/>
			<path class="st1" d="M1028.1-76.4h-22.5c-3.4,0-6.1-2.7-6.1-6.1v-176.9c0-3.4,2.7-6.1,6.1-6.1h22.5c3.4,0,6.1,2.7,6.1,6.1v176.9
				C1034.2-79.1,1031.4-76.4,1028.1-76.4z"/>
			<path class="st1" d="M1051.2-240.7c-2.1-13.9,9.3-25.6,22.9-24.1c9.6,1.1,17.1,8.9,18.2,18.5c1.4,13.5-9.9,24.5-23.9,22.5
				C1059.6-225,1052.5-231.9,1051.2-240.7z M1082.9-76.4h-22.5c-3.4,0-6.1-2.7-6.1-6.1v-126.2c0-3.4,2.7-6.1,6.1-6.1h22.5
				c3.4,0,6.1,2.7,6.1,6.1v126.2C1089-79.1,1086.3-76.4,1082.9-76.4z"/>
			<path class="st1" d="M1216.2-90.1c-8.3,9.1-23.3,16-40.9,16c-42.7,0-71.4-29.7-71.4-71.1c0-40.3,28.5-71.9,70.1-71.9
				c17.6,0,31.3,5.4,39.8,13.4v-55.7c0-3.4,2.7-6.1,6.1-6.1h22.5c3.4,0,6.1,2.7,6.1,6.1v176.9c0,3.4-2.7,6.1-6.1,6.1h-20.1
				c-3.4,0-6.1-2.7-6.1-6.1V-90.1z M1176.9-105.1c23.3,0,38-17.6,38-40.6s-15.3-40.6-38-40.6c-23.3,0-38.3,17.6-38.3,40.6
				C1138.7-122.4,1154.4-105.1,1176.9-105.1z"/>
			<path class="st1" d="M1311.7-167.1c12.4,0,20.7,3.4,24.6,5.7v-7c0-12.2-4.9-20.4-18.1-20.4c-10.5,0-15,5.4-16.3,11.5
				c-0.6,2.7-3.1,4.6-5.9,4.6h-20.3c-3.7,0-6.6-3.3-6-6.9c3.2-22.2,18.7-36.5,48.6-36.5c39.8,0,52.2,21.7,52.2,52.8v81.1
				c0,3.4-2.7,6.1-6.1,6.1h-16.8c-3.4,0-6.1-2.7-6.1-6.1v-2.7c-3.9,4.1-12.9,10.6-29.2,10.6c-27.7,0-48.1-18.4-48.1-47.1
				C1264.1-147.5,1282.7-167.1,1311.7-167.1z M1316.9-102c12,0,20.9-9.3,19.8-22c-0.8-9-9.2-16.9-18.2-17.5
				c-13.2-0.9-21.8,7.9-21.8,19.6C1296.7-110.2,1304.7-102,1316.9-102z"/>
		</g>
		<g>
			<path class="st1" d="M198.5-215.8c0.1,0.1,0.2,0.1,0.2,0.2c0.1,0.1,0.1,0.2,0.2,0.2c9.2,9.2,24.2,9.3,33.4,0.1l3.4-3.4
				c0,0,0,0,0,0c9.2-9.2,9.2-24.2,0-33.4c-0.1-0.1-0.2-0.2-0.3-0.3c-0.1-0.1-0.2-0.2-0.3-0.3c-9.2-9.2-24.2-9.2-33.4,0c0,0,0,0,0,0
				l-3.4,3.4C189.3-240,189.3-225,198.5-215.8z"/>
			<path class="st1" d="M137.7-263c-1.9,12.9,6.9,24.9,19.8,26.9c7.7,1.2,15.1-1.5,20.3-6.7c3.4-3.4,5.8-7.7,6.6-12.9l1.3-8.1
				c1.9-12.9-7-24.3-20-26.2c-12.9-1.9-24.9,6.9-26.9,19.8L137.7-263z"/>
			<path class="st1" d="M75.9-251.4l6.8,12.7c6.1,11.5,20.4,15.9,32,9.8c2.1-1.1,4-2.5,5.6-4.2c7.2-7.2,9.1-18.4,4.1-27.8l-6.8-12.7
				c-6.1-11.5-20.4-15.9-32-9.8C74.2-277.2,69.8-262.9,75.9-251.4z"/>
			<path class="st1" d="M19.8-229.5c-5.7,11.7-0.8,25.9,10.9,31.6l21.1,10.4c9.3,4.5,20.1,2.4,27-4.5c1.8-1.8,3.4-4,4.5-6.4
				c5.7-11.7,0.8-25.9-10.9-31.6l-21.1-10.4C39.6-246.2,25.5-241.3,19.8-229.5z"/>
			<path class="st1" d="M219.3-174.4c1.9,12.9,14,21.8,26.9,19.8l7.1-1.1c12.9-1.9,21.8-14,19.8-26.9c-1.9-12.9-14-21.8-26.9-19.8
				l-8.1,1.3c-5.2,0.8-8.7,3.1-12.2,6.5C220.8-189.5,218.1-182.1,219.3-174.4z"/>
			<path class="st1" d="M216.4-137c-1.6,1.6-3,3.5-4.2,5.6c-6.1,11.5-1.8,25.8,9.8,32l12.3,6.7c11.5,6.1,25.8,1.8,32-9.8
				c6.1-11.5,1.8-25.8-9.8-32l-12.3-6.7C234.8-146.2,223.6-144.2,216.4-137z"/>
			<path class="st1" d="M213.2-89.3c-5.7-11.7-19.8-16.6-31.6-10.9c-2.4,1.2-4.6,2.7-6.4,4.5c-6.9,6.9-9.1,17.7-4.5,27l10.3,21.1
				c5.7,11.7,19.8,16.6,31.6,10.9c11.7-5.7,16.6-19.8,10.9-31.6L213.2-89.3z"/>
			<g>
				<path class="st1" d="M165.3-172.9c2.5,4.3,3.5,9.5,2.7,14.3L148-32.7c-1.9,11.9-13.1,20-25,18.1c-4.7-0.8-8.8-3-11.9-6.1
					c-4.8-4.8-7.3-11.7-6.1-18.9l9-56.8c0.2-1.1-1.2-1.8-2-1L69-54.4c-4.1,4.1-9.6,6.4-15.4,6.4c-5.8,0-11.3-2.3-15.3-6.3h0
					c-2.4-2.3-4.4-5.2-5.4-8.4c-2.7-8.3-0.6-16.8,5.2-22.6L81-128.3c0.8-0.8,0.1-2.2-1-2l-57.2,8.4c-11.9,1.9-23.1-6.2-25-18.1
					c-1.9-11.9,6.2-23.1,18.1-24.9L143-183.6c8.9-1.4,17.6,2.7,22.2,10.5"/>
			</g>
		</g>
	</g>
</g>
</svg>
